{"title":"American Crime Story S01 1080p BluRay HEVC DD5.1 x265","uid":15787499,"size":8371514819,"categoryP":"video","categoryS":"hd___tv_shows","magnet":"?xt=urn:btih:642c7af78ddc92091a018ff0a54d37919dabf354&amp;dn=American+Crime+Story+S01+1080p+BluRay+HEVC+DD5.1+x265&amp;tr=udp%3A%2F%2Ftracker.leechers-paradise.org%3A6969&amp;tr=udp%3A%2F%2Fzer0day.ch%3A1337&amp;tr=udp%3A%2F%2Fopen.demonii.com%3A1337&amp;tr=udp%3A%2F%2Ftracker.coppersurfer.tk%3A6969&amp;tr=udp%3A%2F%2Fexodus.desync.com%3A6969","seeders":3,"leechers":5,"uploader":"nayhtut","files":20,"time":1473341913,"description":"[Screenshots Gallery Link]\r\n\r\n[http://postimg.org/gallery/1obtnjomy/]\r\n\r\nSource:  American Crime Story S01 1080p BluRay x264 TURMOiL  (Size: 37.6 GB)\r\n\r\n\r\nContains:  American Crime Story Season One - Episode 01 to 10\r\n\r\nFormat                                   : Matroska\r\nFormat version                           : Version 4 / Version 2\r\nFile size                                : 7.79 GiB\r\nDuration                                 : Various\r\nOverall bit rate                         : 2 249 Kbps\r\nWriting application                      : Lavf57.25.100\r\nWriting library                          : Lavf57.25.100\r\n\r\nVideo\r\n\r\nID                                       : 1\r\nFormat                                   : V_MPEGH/ISO/HEVC\r\nCodec ID                                 : V_MPEGH/ISO/HEVC\r\nDuration                                 : 57mn 58s\r\nBit rate                                 : 1 820 Kbps\r\nWidth                                    : 1 920 pixels\r\nHeight                                   : 1 080 pixels\r\nDisplay aspect ratio                     : 16:9\r\nFrame rate                               : 25.000 fps\r\nBits/(Pixel*Frame)                       : 0.035\r\nStream size                              : 755 MiB (81%)\r\nWriting library                          : Lavc57.48.101 libx265\r\nLanguage                                 : English\r\nDefault                                  : Yes\r\nForced                                   : No\r\nDURATION                                 : 00:57:58.571000000\r\n\r\nAudio\r\n\r\nID                                       : 2\r\nFormat                                   : AC-3\r\nFormat/Info                              : Audio Coding 3\r\nMode extension                           : CM (complete main)\r\nFormat settings, Endianness              : Big\r\nCodec ID                                 : A_AC3\r\nDuration                                 : 57mn 58s\r\nBit rate mode                            : Constant\r\nBit rate                                 : 384 Kbps\r\nChannel(s)                               : 6 channels\r\nChannel positions                        : Front: L C R, Side: L R, LFE\r\nSampling rate                            : 48.0 KHz\r\nBit depth                                : 16 bits\r\nCompression mode                         : Lossy\r\nStream size                              : 159 MiB (17%)\r\nWriting library                          : Lavc57.24.102 ac3\r\nLanguage                                 : English\r\nDefault                                  : Yes\r\nForced                                   : No\r\nDURATION                                 : 00:57:58.591000000","torrent":{"xt":"urn:btih:642c7af78ddc92091a018ff0a54d37919dabf354","amp;dn":"American+Crime+Story+S01+1080p+BluRay+HEVC+DD5.1+x265","amp;tr":["udp%3A%2F%2Ftracker.leechers-paradise.org%3A6969","udp%3A%2F%2Fzer0day.ch%3A1337","udp%3A%2F%2Fopen.demonii.com%3A1337","udp%3A%2F%2Ftracker.coppersurfer.tk%3A6969","udp%3A%2F%2Fexodus.desync.com%3A6969"],"infoHash":"642c7af78ddc92091a018ff0a54d37919dabf354","infoHashBuffer":{"type":"Buffer","data":[100,44,122,247,141,220,146,9,26,1,143,240,165,77,55,145,157,171,243,84]},"announce":[],"urlList":[]}}